<svg height="10" viewBox="0 0 10 10" width="10" xmlns="http://www.w3.org/2000/svg"><path d="m9.63498421 5h-.25998421c-.20710678 0-.375.16789322-.375.375v3.625h-8v-8h3.625c.20710678 0 .375-.16789322.375-.375v-.24074675c0-.20710678-.16789322-.38425325-.375-.38425325h-3.5c-.62132034 0-1.125.51293291-1.125 1.13425325v7.74074675c0 .62132034.50367966 1.125 1.125 1.125h7.75998421c.62132035 0 1.11501579-.50367966 1.11501579-1.125v-3.5c0-.20710678-.157909-.375-.36501579-.375zm-.07241708-5h-2.33297534c-.38949752 0-.58415515.47224524-.30984828.74728116l.65122819.65122819-4.44231311 4.44067274c-.0823633.08207781-.12865859.19357069-.12865859.30984829 0 .11627759.04629529.22777047.12865859.30984828l.4131918.41246275c.08207781.0823633.19357069.12865859.30984829.12865859.11627759 0 .22777048-.04629529.30984829-.12865859l4.44012594-4.44140179.65104593.65031687c.27339555.27339555.74728116.08201867.74728116-.30984828v-2.33297533c0-.24158751-.19584537-.43743288-.43743287-.43743288z" fill="#fff"/></svg>